<svg width="45" height="35" viewBox="0 0 45 35" fill="none" xmlns="http://www.w3.org/2000/svg">
<path d="M0 4.16667C0 1.86548 1.86548 0 4.16667 0H40.8333C43.1345 0 45 1.86548 45 4.16667V4.16667C45 6.46785 43.1345 8.33333 40.8333 8.33333H4.16666C1.86548 8.33333 0 6.46785 0 4.16667V4.16667Z" fill="white"/>
<path d="M0 4.16667C0 1.86548 1.86548 0 4.16667 0H40.8333C43.1345 0 45 1.86548 45 4.16667V4.16667C45 6.46785 43.1345 8.33333 40.8333 8.33333H4.16666C1.86548 8.33333 0 6.46785 0 4.16667V4.16667Z" fill="white"/>
<path d="M0 17.4999C0 15.1987 1.86548 13.3333 4.16667 13.3333H40.8333C43.1345 13.3333 45 15.1987 45 17.4999V17.4999C45 19.8011 43.1345 21.6666 40.8333 21.6666H4.16666C1.86548 21.6666 0 19.8011 0 17.4999V17.4999Z" fill="white"/>
<path d="M0 17.4999C0 15.1987 1.86548 13.3333 4.16667 13.3333H40.8333C43.1345 13.3333 45 15.1987 45 17.4999V17.4999C45 19.8011 43.1345 21.6666 40.8333 21.6666H4.16666C1.86548 21.6666 0 19.8011 0 17.4999V17.4999Z" fill="white"/>
<path d="M0 30.8334C0 28.5322 1.86548 26.6667 4.16667 26.6667H40.8333C43.1345 26.6667 45 28.5322 45 30.8334V30.8334C45 33.1346 43.1345 35.0001 40.8333 35.0001H4.16666C1.86548 35.0001 0 33.1346 0 30.8334V30.8334Z" fill="white"/>
<path d="M0 30.8334C0 28.5322 1.86548 26.6667 4.16667 26.6667H40.8333C43.1345 26.6667 45 28.5322 45 30.8334V30.8334C45 33.1346 43.1345 35.0001 40.8333 35.0001H4.16666C1.86548 35.0001 0 33.1346 0 30.8334V30.8334Z" fill="white"/>
</svg>
